<?xml version="1.0" encoding="UTF-8" standalone="no"?>
<svg
   xmlns:dc="http://purl.org/dc/elements/1.1/"
   xmlns:cc="http://creativecommons.org/ns#"
   xmlns:rdf="http://www.w3.org/1999/02/22-rdf-syntax-ns#"
   xmlns:svg="http://www.w3.org/2000/svg"
   xmlns="http://www.w3.org/2000/svg"
   xmlns:sodipodi="http://sodipodi.sourceforge.net/DTD/sodipodi-0.dtd"
   xmlns:inkscape="http://www.inkscape.org/namespaces/inkscape"
   version="1.0"
   width="1280.000000pt"
   height="640.000000pt"
   viewBox="0 0 1280.000000 640.000000"
   preserveAspectRatio="xMidYMid meet"
   id="svg8"
   sodipodi:docname="bullet.svg"
   inkscape:version="1.0 (4035a4fb49, 2020-05-01)">
  <defs
     id="defs12" />
  <sodipodi:namedview
     inkscape:document-rotation="0"
     pagecolor="#ffffff"
     bordercolor="#666666"
     borderopacity="1"
     objecttolerance="10"
     gridtolerance="10"
     guidetolerance="10"
     inkscape:pageopacity="0"
     inkscape:pageshadow="2"
     inkscape:window-width="1920"
     inkscape:window-height="1046"
     id="namedview10"
     showgrid="false"
     inkscape:zoom="0.82441406"
     inkscape:cx="853.33333"
     inkscape:cy="426.66667"
     inkscape:window-x="-11"
     inkscape:window-y="-11"
     inkscape:window-maximized="1"
     inkscape:current-layer="svg8" />
  <metadata
     id="metadata2">
Created by potrace 1.15, written by Peter Selinger 2001-2017
<rdf:RDF>
  <cc:Work
     rdf:about="">
    <dc:format>image/svg+xml</dc:format>
    <dc:type
       rdf:resource="http://purl.org/dc/dcmitype/StillImage" />
  </cc:Work>
</rdf:RDF>
</metadata>
  <g
     transform="matrix(-0.1,0,0,0.1,1280.2102,-74.900005)"
     fill="#000000"
     stroke="none"
     id="g6"
     style="fill:#ffce63;fill-opacity:1">
    <path
       d="m 9934,5993 c -93,-86 -170,-160 -172,-165 -2,-4 -79,-8 -171,-8 h -168 l -17,83 c -9,45 -24,115 -32,155 l -16,72 H 7016 c -2402,0 -2454,-1 -2770,-41 C 2617,5883 1000,4935 626,3964 c -58,-149 -79,-275 -73,-434 10,-268 105,-504 316,-786 597,-799 1941,-1494 3262,-1688 358,-53 194,-50 2806,-53 l 2422,-4 6,33 c 3,18 19,101 34,183 l 28,150 184,2 184,3 175,-172 175,-171 205,7 c 113,3 394,7 625,8 231,1 515,5 631,8 l 211,5 37,29 c 311,237 472,1787 361,3461 -50,746 -169,1316 -318,1517 -12,16 -37,39 -56,50 -33,21 -49,21 -605,29 -314,4 -697,8 -852,8 l -281,1 z"
       id="path4"
       style="fill:#ffce63;fill-opacity:1" />
  </g>
</svg>
