<?xml version="1.0" encoding="UTF-8" standalone="no"?>
<svg
   xmlns:dc="http://purl.org/dc/elements/1.1/"
   xmlns:cc="http://creativecommons.org/ns#"
   xmlns:rdf="http://www.w3.org/1999/02/22-rdf-syntax-ns#"
   xmlns:svg="http://www.w3.org/2000/svg"
   xmlns="http://www.w3.org/2000/svg"
   xmlns:sodipodi="http://sodipodi.sourceforge.net/DTD/sodipodi-0.dtd"
   xmlns:inkscape="http://www.inkscape.org/namespaces/inkscape"
   inkscape:version="1.0 (4035a4fb49, 2020-05-01)"
   sodipodi:docname="gun.svg"
   id="svg8"
   preserveAspectRatio="xMidYMid meet"
   viewBox="0 0 1280.000000 930.000000"
   height="930.000000pt"
   width="1280.000000pt"
   version="1.0">
  <defs
     id="defs12" />
  <sodipodi:namedview
     inkscape:current-layer="svg8"
     inkscape:window-maximized="1"
     inkscape:window-y="-11"
     inkscape:window-x="-11"
     inkscape:cy="620"
     inkscape:cx="853.33333"
     inkscape:zoom="0.69354839"
     showgrid="false"
     id="namedview10"
     inkscape:window-height="1046"
     inkscape:window-width="1920"
     inkscape:pageshadow="2"
     inkscape:pageopacity="0"
     guidetolerance="10"
     gridtolerance="10"
     objecttolerance="10"
     borderopacity="1"
     bordercolor="#666666"
     pagecolor="#ffffff" />
  <metadata
     id="metadata2">
Created by potrace 1.15, written by Peter Selinger 2001-2017
<rdf:RDF>
  <cc:Work
     rdf:about="">
    <dc:format>image/svg+xml</dc:format>
    <dc:type
       rdf:resource="http://purl.org/dc/dcmitype/StillImage" />
  </cc:Work>
</rdf:RDF>
</metadata>
  <g
     style="fill:#ffce63;fill-opacity:1"
     id="g6"
     stroke="none"
     fill="#000000"
     transform="matrix(-0.1,0,0,-0.1,1297.3532,930)">
    <path
       style="fill:#ffce63;fill-opacity:1"
       id="path4"
       d="m 1141,8929 c -18,-18 -31,-41 -31,-55 0,-14 -21,-53 -47,-88 -27,-35 -56,-78 -65,-96 -10,-17 -22,-28 -28,-25 -19,12 -46,-5 -67,-43 -30,-53 -63,-167 -63,-217 0,-23 -6,-60 -14,-81 -7,-22 -11,-45 -9,-52 3,-7 0,-18 -5,-25 -6,-7 -13,-39 -17,-72 -4,-33 -11,-80 -17,-105 -5,-25 -6,-78 -2,-118 6,-69 18,-95 46,-104 8,-3 12,-42 14,-127 1,-68 6,-127 11,-131 4,-5 82,-23 173,-40 697,-132 947,-183 959,-195 13,-13 13,-29 2,-117 -22,-180 -26,-274 -10,-284 8,-4 111,-27 229,-50 226,-43 218,-43 245,2 10,16 16,16 106,0 117,-21 123,-24 110,-59 -12,-32 -39,-23 243,-77 114,-22 212,-37 217,-34 5,3 9,11 9,18 0,33 25,36 129,19 109,-19 105,-16 90,-72 -4,-15 -2,-15 377,-87 l 142,-27 -6,-102 c -3,-70 -1,-104 6,-109 11,-7 76,-20 587,-117 116,-22 255,-49 310,-59 55,-11 312,-60 570,-110 259,-49 481,-93 495,-97 38,-12 196,-121 225,-155 37,-43 83,-138 100,-205 19,-72 19,-139 0,-244 -8,-46 -22,-122 -30,-169 -8,-47 -28,-159 -45,-248 -34,-186 -37,-234 -14,-256 8,-9 17,-16 19,-16 3,0 69,-14 147,-31 79,-16 194,-34 256,-40 119,-9 197,-24 347,-66 274,-76 485,-99 687,-74 137,17 221,16 259,-3 18,-9 46,-19 63,-22 17,-3 44,-14 62,-24 17,-11 48,-23 69,-28 38,-7 39,-9 41,-56 4,-65 50,-144 100,-173 51,-29 54,-30 87,-37 23,-6 27,-11 27,-42 0,-19 14,-142 30,-272 17,-130 35,-275 41,-322 5,-47 11,-96 14,-110 2,-14 7,-54 11,-90 4,-36 8,-76 10,-90 12,-103 60,-474 74,-580 22,-166 49,-381 60,-475 6,-55 16,-125 20,-155 5,-30 15,-107 21,-170 l 12,-116 -224,-219 c -303,-297 -322,-317 -355,-383 -28,-55 -29,-62 -27,-185 2,-101 6,-136 22,-171 81,-185 388,-318 824,-357 149,-14 274,-10 1574,41 289,11 440,29 603,70 261,65 451,159 562,277 80,86 86,106 86,283 1,178 3,171 -107,333 -36,54 -75,111 -86,128 -95,142 -137,194 -208,250 -77,61 -97,93 -97,157 0,13 -4,31 -9,41 -5,9 -21,73 -36,141 -83,393 -143,689 -194,955 l -57,300 29,6 c 15,4 39,17 53,29 45,44 44,71 -22,410 l -34,175 -50,45 c -27,25 -56,61 -64,80 -18,45 -40,283 -33,365 7,93 50,177 136,268 116,122 228,183 384,207 34,6 141,14 237,20 286,16 425,46 544,118 106,64 226,208 226,273 0,27 -79,109 -106,109 -13,0 -87,-20 -165,-45 -217,-70 -313,-70 -478,-3 -40,17 -90,32 -110,33 -39,2 -190,74 -276,132 -41,27 -54,42 -59,68 -4,18 -20,50 -36,70 -24,30 -30,48 -30,84 0,60 20,360 25,388 9,40 81,118 146,156 35,21 100,49 145,62 l 81,25 16,60 c 24,87 22,122 -10,154 -14,15 -32,25 -40,22 -7,-3 -13,-2 -13,2 0,4 -28,7 -62,7 -65,-1 -137,-19 -176,-43 -22,-14 -105,-13 -119,2 -3,3 16,95 43,203 46,188 48,204 47,326 0,84 -5,132 -13,142 -15,18 -95,20 -107,3 -4,-7 -13,-31 -19,-53 -6,-22 -15,-39 -20,-38 -5,1 -90,11 -189,22 -99,12 -197,23 -217,26 -33,5 -38,2 -44,-19 -5,-21 -11,-24 -37,-20 -18,2 -99,13 -182,24 -82,11 -303,50 -490,86 -187,36 -353,66 -369,66 -35,1 -52,-19 -61,-73 -7,-38 -8,-39 -38,-34 -18,3 -164,30 -326,60 -161,30 -304,55 -316,55 -19,0 -23,-7 -29,-46 -3,-26 -6,-59 -6,-75 0,-31 -40,-69 -72,-69 -61,0 -119,73 -137,174 -6,33 -13,61 -15,64 -10,10 -278,59 -368,67 l -37,4 -12,-60 c -11,-57 -13,-60 -38,-55 -14,3 -170,33 -346,66 -176,33 -392,74 -480,91 -372,70 -470,91 -505,109 l -37,19 7,51 c 4,34 3,53 -4,55 -6,2 -87,17 -181,34 -93,18 -567,106 -1052,196 -485,91 -887,165 -893,165 -15,0 -70,-123 -70,-156 0,-26 -2,-26 -42,-20 -22,4 -45,9 -49,12 -4,2 -19,42 -33,87 -40,128 -27,120 -285,168 -217,40 -225,40 -239,23 -22,-29 -62,-122 -62,-144 0,-14 -7,-20 -24,-20 -36,0 -62,29 -81,90 -18,57 -61,140 -73,140 -3,0 -103,18 -221,40 -118,23 -220,39 -226,36 -17,-6 -75,-114 -75,-138 0,-24 -20,-31 -52,-19 -19,7 -30,23 -43,63 -17,53 -58,133 -73,142 -5,3 -109,23 -232,46 l -224,41 -18,-23 c -9,-13 -30,-49 -45,-80 -41,-84 -76,-76 -113,24 -11,31 -31,71 -43,90 -22,31 -29,34 -135,54 -62,11 -115,23 -118,26 -3,3 2,36 11,73 8,37 13,70 10,75 -10,17 -85,20 -109,5 -21,-14 -42,-12 -236,16 -195,28 -215,33 -233,55 -27,35 -77,33 -116,-7 z m 9849,-2447 c 0,-14 -46,-53 -53,-45 -4,3 -7,17 -7,30 0,19 5,23 30,23 17,0 30,-4 30,-8 z M 7075,5670 c 176,-34 326,-64 334,-69 8,-4 23,-24 33,-43 117,-226 73,-500 -111,-686 -37,-38 -89,-80 -114,-92 l -47,-23 -202,37 c -112,21 -237,49 -279,62 -90,28 -180,84 -233,145 -69,79 -116,215 -116,337 0,130 112,277 274,358 62,31 97,43 115,40 14,-3 170,-33 346,-66 z m 568,-149 c 23,-16 56,-42 72,-58 17,-16 56,-51 88,-77 32,-27 56,-51 53,-53 -6,-7 -230,38 -241,48 -5,5 -16,45 -25,89 -19,93 -14,98 53,51 z m 119,-300 c 80,-16 151,-32 157,-36 16,-9 13,-52 -8,-120 -14,-46 -24,-61 -40,-63 -18,-3 -290,44 -297,51 -2,1 1,21 6,42 5,22 14,66 20,98 6,31 12,57 13,57 1,0 68,-13 149,-29 z m -103,-312 c 64,-12 119,-24 123,-28 8,-7 -78,-78 -122,-101 -56,-30 -140,-49 -173,-39 -17,5 -44,9 -59,9 -16,0 -28,3 -28,6 0,10 71,99 86,107 8,4 14,15 14,22 0,8 7,15 16,15 10,0 14,6 10,15 -7,19 -5,19 133,-6 z" />
  </g>
</svg>
